<svg xmlns="http://www.w3.org/2000/svg" xml:space="preserve" width="701.61401" height="461.76801" viewBox="0 0 701.614 461.76801"><defs><linearGradient id="b" x1="0" x2="1" y1="0" y2="0" gradientTransform="rotate(-142.941 248.602 136.67) scale(71.84676)" gradientUnits="userSpaceOnUse" spreadMethod="pad"><stop offset="0" style="stop-opacity:1;stop-color:#fddb00"/><stop offset="0.62313061" style="stop-opacity:1;stop-color:#a72024"/><stop offset="1" style="stop-opacity:1;stop-color:#a72024"/></linearGradient><linearGradient id="c" x1="0" x2="1" y1="0" y2="0" gradientTransform="scale(67.65088) rotate(70.451 -1.321 6.946)" gradientUnits="userSpaceOnUse" spreadMethod="pad"><stop offset="0" style="stop-opacity:1;stop-color:#fddb00"/><stop offset="0.86249278" style="stop-opacity:1;stop-color:#f04e22"/><stop offset="1" style="stop-opacity:1;stop-color:#f04e22"/></linearGradient><linearGradient id="d" x1="0" x2="1" y1="0" y2="0" gradientTransform="scale(-129.26649) rotate(-28.406 -7.488 4.126)" gradientUnits="userSpaceOnUse" spreadMethod="pad"><stop offset="0" style="stop-opacity:1;stop-color:#fddb00"/><stop offset="0.73696312" style="stop-opacity:1;stop-color:#39b54a"/><stop offset="1" style="stop-opacity:1;stop-color:#39b54a"/></linearGradient><linearGradient id="f" x1="0" x2="1" y1="0" y2="0" gradientTransform="scale(58.51486) rotate(-39.806 12.179 -5.783)" gradientUnits="userSpaceOnUse" spreadMethod="pad"><stop offset="0" style="stop-opacity:1;stop-color:#90d7ec"/><stop offset="0.02974658" style="stop-opacity:1;stop-color:#90d7ec"/><stop offset="0.353854" style="stop-opacity:1;stop-color:#56ade0"/><stop offset="0.37040224" style="stop-opacity:1;stop-color:#56ade0"/><stop offset="0.933076" style="stop-opacity:1;stop-color:#1f59a8"/><stop offset="1" style="stop-opacity:1;stop-color:#1f59a8"/></linearGradient><linearGradient id="g" x1="0" x2="1" y1="0" y2="0" gradientTransform="scale(67.39202) rotate(15.744 -18.787 24.648)" gradientUnits="userSpaceOnUse" spreadMethod="pad"><stop offset="0" style="stop-opacity:1;stop-color:#97adda"/><stop offset="0.5145727" style="stop-opacity:1;stop-color:#744594"/><stop offset="1" style="stop-opacity:1;stop-color:#744594"/></linearGradient><clipPath id="a" clipPathUnits="userSpaceOnUse"><path d="M0 0h841.89v595.281H0Z"/></clipPath><clipPath id="e" clipPathUnits="userSpaceOnUse"><path d="M0 0h841.89v595.281H0Z"/></clipPath></defs><g clip-path="url(#a)" transform="matrix(1.33333 0 0 -1.33333 -222.277 641.87)"><path d="M0 0c-13.314 0-22.468 9.938-22.468 23.386v.128c0 12.921 9.464 23.509 22.406 23.509 7.69 0 12.329-2.212 16.785-6.238L10.8 33.187C7.508 36.115 4.575 37.8-.37 37.8c-6.837 0-12.27-6.435-12.27-14.156v-.13c0-8.317 5.372-14.418 12.942-14.418 3.416 0 6.47.909 8.85 2.717v6.502H-.31v8.634h18.56V7.215C13.854 3.246 7.815 0 0 0" style="fill:#231f20;fill-opacity:1;fill-rule:nonzero;stroke:none" transform="translate(360.604 144.879)"/><path d="M0 0c-2.502-7.078-5.192-9.739-10.743-9.739-3.36 0-5.862.909-8.24 2.4l3.109 7.145c1.221-.777 2.746-1.365 3.969-1.365 1.586 0 2.443.517 3.234 2.269L-21.49 35.653h9.827l7.446-23.705 7.149 23.705h9.638z" style="fill:#231f20;fill-opacity:1;fill-rule:nonzero;stroke:none" transform="translate(403.942 144.815)"/><path d="M0 0c-3.848 0-6.352-2.92-7.081-7.412H6.898C6.344-2.991 3.902 0 0 0m15.812-13.58h-22.77c.916-4.478 3.84-6.817 7.992-6.817 3.114 0 5.371 1.042 7.941 3.571l5.312-4.996C11.233-25.848 6.837-28.32.91-28.32c-9.822 0-17.091 7.341-17.091 17.991v.128C-16.181-.266-9.525 7.918 0 7.918c10.926 0 15.934-9.026 15.934-18.896v-.132c0-.971-.067-1.558-.122-2.47" style="fill:#231f20;fill-opacity:1;fill-rule:nonzero;stroke:none" transform="translate(433.549 173.2)"/><path d="M0 0c0 5.129-3.484 9.616-8.612 9.616-5.313 0-8.485-4.349-8.485-9.488V0c0-5.126 3.479-9.608 8.61-9.608C-3.178-9.608 0-5.262 0-.128zm-8.612-18.119c-10.134 0-17.638 7.992-17.638 17.991V0c0 10.002 7.566 18.119 17.763 18.119 10.133 0 17.641-7.991 17.641-17.991V0c0-9.999-7.57-18.119-17.766-18.119" style="fill:#231f20;fill-opacity:1;fill-rule:nonzero;stroke:none" transform="translate(479.821 162.998)"/><path d="M0 0v19.42c0 4.674-2.085 7.08-5.615 7.08-3.548 0-5.8-2.406-5.8-7.08V0h-9.288v34.809h9.288v-4.935c2.129 2.922 4.882 5.583 9.581 5.583 7.016 0 11.107-4.935 11.107-12.922V0Z" style="fill:#231f20;fill-opacity:1;fill-rule:nonzero;stroke:none" transform="translate(515.164 145.66)"/><path d="M0 0c0 4.738-3.48 8.051-7.997 8.051-4.514 0-7.935-3.313-7.935-8.051v-.13c0-4.8 3.421-8.06 7.935-8.06C-3.48-8.19 0-4.873 0-.13zm-9.095-29.745c-5.311 0-10.311 1.295-14.47 3.635l3.174 7.406c3.362-2.013 6.722-3.188 11.055-3.188C-2.99-21.892 0-18.638 0-12.405v1.688c-2.745-3.51-5.732-5.65-10.676-5.65-7.636 0-14.532 5.913-14.532 16.237V0c0 10.391 7.022 16.234 14.532 16.234 5.063 0 8.057-2.268 10.554-5.19v4.542h9.281v-26.949c0-13.117-6.104-18.382-18.254-18.382" style="fill:#231f20;fill-opacity:1;fill-rule:nonzero;stroke:none" transform="translate(555.018 164.883)"/><path d="M0 0v19.42c0 4.674-2.07 7.08-5.612 7.08-3.537 0-5.797-2.406-5.797-7.08V0h-9.282v34.809h9.282v-4.935c2.133 2.922 4.886 5.583 9.582 5.583 7.023 0 11.113-4.935 11.113-12.922V0Z" style="fill:#231f20;fill-opacity:1;fill-rule:nonzero;stroke:none" transform="translate(591.945 145.66)"/><path d="M0 0c-1.586.784-3.665 1.303-5.92 1.303-3.973 0-6.414-1.686-6.414-4.802v-.133c0-2.661 2.081-4.223 5.072-4.223C-2.93-7.855 0-5.322 0-1.754zm-.186-14.022v3.765c-2.255-2.662-5.367-4.414-9.891-4.414-6.162 0-11.229 3.768-11.229 10.646v.132c0 7.602 5.431 11.101 13.188 11.101 3.298 0 5.677-.582 7.991-1.428v.59c0 4.095-2.381 6.365-7.012 6.365-3.543 0-6.05-.713-9.038-1.884l-2.321 7.532c3.604 1.685 7.141 2.791 12.698 2.791 10.129 0 14.592-5.583 14.592-15v-20.196z" style="fill:#231f20;fill-opacity:1;fill-rule:nonzero;stroke:none" transform="translate(627.414 159.683)"/><path d="M0 0v19.42c0 4.674-1.951 7.08-5.433 7.08-3.482 0-5.62-2.406-5.62-7.08V0h-9.275v19.42c0 4.674-1.954 7.08-5.436 7.08-3.479 0-5.614-2.406-5.614-7.08V0h-9.281v34.809h9.281v-4.935c2.135 2.922 4.938 5.583 9.645 5.583 4.271 0 7.509-2.014 9.218-5.52 2.867 3.572 6.286 5.52 10.744 5.52 6.897 0 11.054-4.413 11.054-12.784V0Z" style="fill:#231f20;fill-opacity:1;fill-rule:nonzero;stroke:none" transform="translate(683.636 145.66)"/><path d="M0 0c14.004 5.766 37.087 31.641 40.187 38.107 3.095 6.455 3.793 13.695-9.722 9.258-12.682-4.167-36.9-26.471-39.782-39.313C-11.056.305-6.669-2.74 0 0m-4.684-19.68c-2.972-1.253-6.037-2.071-9.354-2.111-7.671-.063-15.894 5.79-16.523 13.11-.712 8.329 2.039 14.776 6.051 21.705C-14.006 31.142.542 45.567 20.27 55.245c6.555 3.217 13.555 5.381 21.168 5.394 4.107.006 8.192-.489 11.229-3.615 2.336-2.415 4.373-6.085 3.744-9.425-.586-3.135 3.279-4.719 5.092-6.747 2.041-2.284 2.593-4.468.846-6.892C52.7 20.506 38.654-9.324 37.943-20.104c.059-2.635-.373-4.348-3.27-3.32-15.426 6.17-13.806 16.686-13.527 22.89-.204.076-15.21-14.356-25.83-19.146" style="fill:#a72024;fill-opacity:1;fill-rule:evenodd;stroke:none" transform="translate(431.394 232.6)"/><path d="M0 0c1.581-5.722 6.419-8.152 12.475-6.486 3.973 1.093 7.556 2.083 10.7 4.557 10.911 8.603 15.938 16.302 20.442 28.887 1.778 4.94 3.347 9.914 3.221 15.188-.163 6.846-6.437 9.869-13.374 7.621-11.83-4.57-22.45-18.069-27.885-27.086C-1.833 10.477-.417 1.537 0 0m64.81 35.279c-.338-9.925-5.584-20.679-13.287-30.485-9.131-11.609-20.54-20.492-36.004-23.574-11.182-2.224-21.941-.933-30.929 6.321-7.821 6.304-10.049 14.974-8.712 24.033 4.282 20.267 17.515 39.033 37.557 47.968 12.339 5.312 25.093 4.811 37.504-.097 10.082-3.987 13.933-11.793 13.871-24.166" style="fill:#a72024;fill-opacity:1;fill-rule:evenodd;stroke:none" transform="translate(587.562 226.582)"/><path d="M0 0c1.52.91 4.773-.685 6.335-1.561 5.51-3.086 7.286-7.709 5.055-13.388C8.854-21.392 5.084-27.25 1.21-33.035c-12.187-18.243-25.559-35.652-41.181-51.499-1.887-1.905-3.976-3.643-6.039-5.393-3.381-2.86-5.138-2.945-9.373-1.256-8.604 3.437-10.465 10.378-10.965 18.05-.885 13.954.552 27.795 2.559 41.595.605 4.176 1.344 8.341 1.941 12.519.384 2.688.427 5.365-1.002 7.9-1.169 2.056-.125 2.85 2.042 2.717 7.228-.47 14.008-2.216 19.875-6.365 2.188-1.538 3.236-3.539 3.222-6.242-.049-6.816-1.9-13.329-3.199-19.943-1.795-9.186-5.283-27.276-3.05-27.863 2.61-.679 39.636 55.621 41.177 59.781C-.932-4.025-2.336-1.394 0 0" style="fill:#a72024;fill-opacity:1;fill-rule:evenodd;stroke:none" transform="translate(565.977 299.087)"/><path d="M0 0c3.99 5.878 17.034 16.59 25.813 18.597 7.33 1.673 16.158-1.068 16.919-7.332.692-5.703-4.549-13.348-10.286-15.448-1.509-.553-2.154-.241-2.417 1.296-1.17 6.833-4.033 5.567-10.739 2.408-5.876-2.77-10.441-7.085-14.665-11.72-7.887-8.609-13.886-15.697-19.487-25.684-4.205-7.495-8.244-15.088-11.723-22.921-1.321-2.967-2.325-3.244-5.508-1.764-10.145 4.703-12.864 12.366-8.161 23.773 3.829 9.293 7.87 18.513 11.818 27.763 1.588 3.716 3.061 7.483 4.787 11.136 2.18 4.608 3.159 9.36 2.833 14.405-.207 3.121.871 4.217 4.169 3.886 6.232-.606 10.849-1.967 16.005-5.292C1.897 11.456 1.683 6.339 0 0" style="fill:#a72024;fill-opacity:1;fill-rule:evenodd;stroke:none" transform="translate(382.575 273.532)"/><path d="M0 0c-22.36-3.056-44.644-14.227-42.872-18.905 1.54-4.075 11.221 2.051 27.164 2.699-59.645-65.639-79.157-133.89-79.157-133.89-3.425-13.122 3.98-7.212 8.18.001C-48.921-85.234-11.453-44.683 22.404-15.445c21.684 1.196 33.382-3.231 37.166-10.492 5.287-10.128-10.509-21.707-30.568-21.25-21.629.486-23.254-11.053-14.627-12.699 9.739-1.857 23.609-6.291 19.912-21.485-5.734-23.58-44.379-26.241-59.769-21.009-11.844 4.028-17.056.351-7.911-5.626 37.832-24.739 89.236-11.847 102.688 18.87 11.684 26.653-19.231 31.453-19.231 31.453 1.761-.123 33.002.308 39.596 27.37C95.504-6.365 63.561-.318 42.952 1.243a452.224 452.224 0 0 0 6.96 5.178l-13.317 9.272L6.777 6.421A377.534 377.534 0 0 1 0 0" style="fill:#a72024;fill-opacity:1;fill-rule:nonzero;stroke:none" transform="translate(262.452 331.212)"/></g><path d="M287.25 353.314c-6.413-5.037-12.313-10.392-18.021-15.681h43.135c18.619 13.441 32.835 21.96 42.546 27.943 18.915 11.651 18.527 22.797 3.776 22.799-13.315.002-38.333-9.077-71.436-35.061" style="fill:url(#b);stroke:none" transform="matrix(1.33333 0 0 -1.33333 -222.277 641.87)"/><path d="M370.381 401.418c.217-.923.847-2.182 2.061-.025 15.059 26.709 34.975 39.495 48.628 52.175 12.57 11.675 1.878 21.294-12.565 11.317-8.37-5.782-25.664-19.613-27.46-10.379-1.19 6.134.992 18.945-5.731 18.947-13.79.005-10.106-49.987-4.933-72.035" style="fill:url(#c);stroke:none" transform="matrix(1.33333 0 0 -1.33333 -222.277 641.87)"/><path d="M321.028 395.778c6.222-.534 11.121-.126 15.835.281 5.764.498 11.252.998 18.546-.225 1.475-.249 1.564.768.922 1.728-16.46 24.586-31.879 27.917-31.879 27.917 20.163-2.935 31.486-18.478 35.889-24.073.685-.871 1.399.01 1.125 1.501-1.834 9.806-5.064 26.018-19.259 34.396-14.001 8.252-25.136 7.717-35.136 7.182-10.406-.555-19.581-1.114-29.479 8.232-1.305-15.261 10.421-54.092 43.436-56.939" style="fill:url(#d);stroke:none" transform="matrix(1.33333 0 0 -1.33333 -222.277 641.87)"/><g clip-path="url(#e)" transform="matrix(1.33333 0 0 -1.33333 -222.277 641.87)"><path d="M0 0c2.938 4.935 9.305 5.923 12.153.951 2.512-4.379-1.214-11.567-7.449-12.564C.125-12.343-3.549-5.952 0 0" style="fill:#f04e22;fill-opacity:1;fill-rule:evenodd;stroke:none" transform="translate(389.317 477.177)"/></g><path d="M390.118 386.383c-2.552 0-5.12-.162-7.677-.488-2.404-.304-1.891-1.531.539-2.035 4.436-1.018 9.986-1.904 14.395-5.296 5.195-4.006 6.66-6.231 3.327-8.03a22.133 22.133 0 0 1-3.012-1.874c-10.581-7.831-13.754-21.956-5.226-33.249 9.202-12.19 26.238-10.899 34.435-4.244 10.588 8.597 11.854 21.134 5.816 32.097-8.314 15.451-25.109 23.119-42.595 23.119h-.002" style="fill:url(#f);stroke:none" transform="matrix(1.33333 0 0 -1.33333 -222.277 641.87)"/><path d="M454.989 449.998c-11.585 0-22.582-6.204-24.718-18.662-2.74-15.991 17.666-24.09 24.422-14.398.887 1.271-.242 2.108-1.041 1.376-5.682-5.219-16.378.541-15.063 9.239 2.421 16 27.751 15.547 31.002-3.168 1.232-7.094-.835-18.339-11.582-22.483-16.437-6.335-24.481 9.471-40.17 11.32-15.033 1.773-31.115-5.657-38.594-19.043-.729-1.304-.425-2.279.831-1.469 8.059 5.175 25.866 11.905 46.335-.225 22.416-13.277 44.642-9.37 54.86 6.142 7.029 10.681 8.711 32.301-6.422 44.555-5.609 4.54-12.84 6.816-19.856 6.816h-.004" style="fill:url(#g);stroke:none" transform="matrix(1.33333 0 0 -1.33333 -222.277 641.87)"/></svg>